HIERARCHY
ROOT Hips
{
	OFFSET 0.000000 0.000000 0.000000 
	CHANNELS 6 Xposition Yposition Zposition Zrotation Yrotation Xrotation
	JOINT LeftUpLeg
	{
		OFFSET 1.363060 -1.794630 0.839290 
		CHANNELS 3 Zrotation Yrotation Xrotation
		JOINT LeftLeg
		{
			OFFSET 2.448110 -6.726130 0.000000 
			CHANNELS 3 Zrotation Yrotation Xrotation
			JOINT LeftFoot
			{
				OFFSET 2.562200 -7.039590 0.000000 
				CHANNELS 3 Zrotation Yrotation Xrotation
				JOINT LeftToeBase
				{
					OFFSET 0.157640 -0.433110 2.322550 
					CHANNELS 3 Zrotation Yrotation Xrotation
					End Site
					{
						OFFSET 0.000000 0.000000 0.000000 
					}
				}
			}
		}
	}
	JOINT RightUpLeg
	{
		OFFSET -1.305520 -1.794630 0.839290 
		CHANNELS 3 Zrotation Yrotation Xrotation
		JOINT RightLeg
		{
			OFFSET -2.542530 -6.985550 0.000000 
			CHANNELS 3 Zrotation Yrotation Xrotation
			JOINT RightFoot
			{
				OFFSET -2.568260 -7.056230 0.000000 
				CHANNELS 3 Zrotation Yrotation Xrotation
				JOINT RightToeBase
				{
					OFFSET -0.164730 -0.452590 2.363150 
					CHANNELS 3 Zrotation Yrotation Xrotation
					End Site
					{
						OFFSET 0.000000 0.000000 0.000000 
					}
				}
			}
		}
	}
	JOINT Spine
	{
		OFFSET 0.028270 2.035590 -0.193380 
		CHANNELS 3 Zrotation Yrotation Xrotation
		JOINT Spine1
		{
			OFFSET 0.056720 2.048850 -0.042750 
			CHANNELS 3 Zrotation Yrotation Xrotation
			JOINT Neck1
			{
				OFFSET -0.054170 1.746240 0.172020 
				CHANNELS 3 Zrotation Yrotation Xrotation
				JOINT Head
				{
					OFFSET 0.104070 1.761360 -0.123970 
					CHANNELS 3 Zrotation Yrotation Xrotation
					End Site
					{
						OFFSET 0.000000 0.000000 0.000000 
					}
				}
			}
			JOINT LeftArm
			{
				OFFSET 3.362410 1.200890 -0.311210 
				CHANNELS 3 Zrotation Yrotation Xrotation
				JOINT LeftForeArm
				{
					OFFSET 4.983000 -0.000000 -0.000000 
					CHANNELS 3 Zrotation Yrotation Xrotation
					JOINT LeftHand
					{
						OFFSET 3.483560 -0.000000 -0.000000 
						CHANNELS 3 Zrotation Yrotation Xrotation
						JOINT LeftHandIndex1
						{
							OFFSET 0.715260 -0.000000 -0.000000 
							CHANNELS 3 Zrotation Yrotation Xrotation
							End Site
							{
								OFFSET 0.000000 0.000000 0.000000 
							}
						}
					}
				}
			}
			JOINT RightArm
			{
				OFFSET -3.136600 1.374050 -0.404650 
				CHANNELS 3 Zrotation Yrotation Xrotation
				JOINT RightForeArm
				{
					OFFSET -5.241900 -0.000000 -0.000000 
					CHANNELS 3 Zrotation Yrotation Xrotation
					JOINT RightHand
					{
						OFFSET -3.444170 -0.000000 -0.000000 
						CHANNELS 3 Zrotation Yrotation Xrotation
						JOINT RightHandIndex1
						{
							OFFSET -0.622530 -0.000000 -0.000000 
							CHANNELS 3 Zrotation Yrotation Xrotation
							End Site
							{
								OFFSET 0.000000 0.000000 0.000000 
							}
						}
					}
				}
			}
		}
	}
}
MOTION
Frames: 16
Frame Time: 0.041667
-25.351770 18.200784 -6.471427 -163.821398 -88.387449 -177.232266 3.098181 -25.154153 -17.214107 -0.439222 6.995142 17.108644 -10.150513 27.473937 6.764742 0.069800 -1.704100 -4.688600 10.685286 7.641833 -20.752507 0.136190 -7.686254 19.595442 7.394318 -26.671996 0.401464 -0.447300 4.291100 -11.897200 0.757269 0.478166 -9.238901 -2.801348 0.174562 -1.894289 22.787223 -8.144867 11.265327 5.911800 -3.787500 1.446200 -84.281594 -5.543448 -17.616291 7.201684 -7.610340 -0.574617 -0.431657 0.498083 78.899795 -7.125000 0.000000 0.000000 90.336787 1.532965 12.077025 -9.985083 13.775173 -1.338945 -0.661311 -0.403665 26.575824 7.125000 0.000000 0.000000 
-25.370759 18.202357 -6.472776 -172.560299 -88.050558 -168.383881 3.029218 -26.185594 -16.757363 -0.458877 6.898151 16.815000 -10.708966 28.650467 6.119963 0.064900 -1.643400 -4.521000 10.313300 7.780468 -20.839434 0.105751 -7.742868 19.776572 7.372551 -26.533997 0.268484 -0.447200 4.290600 -11.895700 0.696743 0.553874 -9.193511 -2.640319 0.210417 -1.664623 22.251096 -8.161815 11.962457 5.697300 -3.727600 1.645100 -84.327753 -5.670320 -17.679533 7.154708 -7.547764 -0.574472 -0.440692 0.505684 79.097699 -7.125000 0.000000 0.000000 90.315635 1.610510 12.117652 -9.975522 13.764409 -1.338633 -0.659971 -0.407801 26.653131 7.125000 0.000000 0.000000 
-25.365815 18.204492 -6.478506 -176.220421 -88.046702 -164.748495 2.911611 -26.090421 -16.831625 -0.473703 6.912100 16.843203 -10.608704 28.438187 6.147497 0.060500 -1.587000 -4.365700 10.165597 7.803886 -20.754353 0.121221 -7.680807 19.617521 7.404464 -26.620606 0.383149 -0.427600 4.196500 -11.630100 0.704932 0.469169 -9.200092 -2.509698 0.172048 -1.787642 21.625533 -8.085087 12.744524 5.437500 -3.616800 1.839800 -84.382607 -5.691849 -17.742369 7.163014 -7.554753 -0.586246 -0.460737 0.511906 79.280962 -7.125000 0.000000 0.000000 90.296635 1.474601 12.376749 -10.092827 13.920336 -1.363087 -0.655056 -0.409900 26.495695 7.125000 0.000000 0.000000 
-25.374467 18.206065 -6.473113 -164.375796 -88.125735 -176.527130 3.316698 -26.011771 -16.807355 -0.453988 6.891111 16.808694 -10.632033 28.426883 6.131053 0.052600 -1.479700 -4.069800 10.672696 7.675206 -20.811954 0.160897 -7.654400 19.505270 7.315012 -26.412179 0.376065 -0.431000 4.213200 -11.677200 0.820348 0.463246 -9.186688 -2.720989 0.146818 -1.697995 21.907884 -8.095858 12.829066 5.549000 -3.618100 1.869600 -84.436824 -5.674544 -17.845498 7.203271 -7.611604 -0.594311 -0.464312 0.512744 79.357287 -7.125000 0.000000 0.000000 90.302376 1.442002 12.565572 -10.147920 13.989946 -1.372314 -0.652457 -0.407805 26.446986 7.125000 0.000000 0.000000 
-25.363793 18.209773 -6.478281 -166.206235 -88.218298 -174.722795 3.100320 -25.097771 -17.177070 -0.493475 6.911282 16.854548 -10.148949 27.444671 6.717555 0.072000 -1.730700 -4.761900 10.512443 8.098991 -20.527299 0.176007 -7.581881 19.317418 7.498776 -26.954890 0.268095 -0.390800 4.014000 -11.116100 0.849169 0.302093 -9.205640 -2.626005 0.065485 -1.890560 21.099809 -8.041048 13.828096 5.222000 -3.501900 2.128500 -84.476841 -5.673017 -17.969422 7.238113 -7.657065 -0.590807 -0.448473 0.509834 79.497933 -7.125000 0.000000 0.000000 90.323854 1.687563 12.488853 -10.027679 13.839439 -1.348796 -0.655148 -0.407866 26.628879 7.125000 0.000000 0.000000 
-25.384916 18.216739 -6.474910 -161.289008 -87.974369 -179.615232 3.263145 -25.319519 -16.933263 -0.456075 6.935458 16.917726 -10.427654 27.998309 6.374561 0.064000 -1.632200 -4.490300 10.642659 8.483449 -20.249365 0.215469 -7.516933 19.095356 7.516992 -27.071450 0.356133 -0.406400 4.092800 -11.337800 0.891155 0.417291 -9.122419 -2.753600 0.113432 -1.643653 21.317475 -8.201597 13.929727 5.321800 -3.578400 2.180800 -84.537286 -5.699233 -18.031276 7.276294 -7.712093 -0.588805 -0.432059 0.506823 79.701577 -7.125000 0.000000 0.000000 90.395251 2.066608 12.017002 -9.826254 13.573238 -1.310520 -0.662953 -0.410063 27.139212 7.125000 0.000000 0.000000 
-25.393343 18.219211 -6.469967 -161.523510 -87.846392 -179.334436 3.338629 -25.745005 -16.802048 -0.426767 6.953630 16.947388 -10.670992 28.524509 6.126282 0.065300 -1.648500 -4.535300 10.604336 8.493251 -20.214457 0.242336 -7.458811 18.913771 7.471753 -26.965791 0.592339 -0.424100 4.179700 -11.582800 0.917898 0.459840 -9.092769 -2.753643 0.134398 -1.553759 21.430897 -8.229087 14.305461 5.352800 -3.560300 2.294200 -84.664244 -5.710306 -18.076355 7.286288 -7.723967 -0.593155 -0.431123 0.514347 79.809714 -7.125000 0.000000 0.000000 90.399885 2.275483 11.634434 -9.697752 13.407255 -1.290245 -0.672821 -0.411375 27.571443 7.125000 0.000000 0.000000 
-25.397276 18.214829 -6.471652 -159.022048 -87.782488 178.184867 3.513186 -26.006607 -16.768514 -0.400057 6.983401 17.026196 -10.811966 28.774477 5.806429 0.052300 -1.475600 -4.058400 10.726218 8.512715 -20.130242 0.276182 -7.388634 18.708431 7.434940 -26.895260 0.762302 -0.434700 4.231000 -11.727400 0.948010 0.475718 -9.090201 -2.793369 0.132471 -1.564597 21.198417 -8.192898 14.877262 5.236100 -3.493700 2.433100 -84.719699 -5.730883 -18.079347 7.253359 -7.674419 -0.598477 -0.436525 0.532290 79.836644 -7.125000 0.000000 0.000000 90.448495 2.327738 11.270812 -9.647372 13.353246 -1.286257 -0.683575 -0.407071 27.942394 7.125000 0.000000 0.000000 
-25.399748 18.208312 -6.465922 -156.747457 -87.709148 175.879376 3.593217 -25.988465 -16.734772 -0.395910 6.994035 17.062132 -10.834994 28.775592 5.643990 0.042700 -1.334200 -3.668900 10.890631 8.326968 -20.070907 0.295404 -7.355222 18.606735 7.367887 -26.730451 0.931984 -0.474700 4.418900 -12.258100 1.020710 0.437219 -9.082228 -2.802494 0.100371 -1.623838 20.519113 -8.158708 15.656034 4.980900 -3.418300 2.616800 -84.868383 -5.744232 -18.195133 7.236516 -7.646370 -0.612750 -0.459740 0.548319 79.861979 -7.125000 0.000000 0.000000 90.393803 2.368039 11.088978 -9.598786 13.299499 -1.278478 -0.688187 -0.401980 28.209156 7.125000 0.000000 0.000000 
-25.409861 18.202582 -6.483899 -157.084631 -87.680185 176.200394 3.519360 -25.596317 -16.882744 -0.401078 7.030711 17.151397 -10.658237 28.403792 5.798334 0.043300 -1.343400 -3.694200 10.847422 8.551314 -19.804238 0.314746 -7.289984 18.420347 7.471802 -27.066162 0.969241 -0.471800 4.405600 -12.220500 1.125916 0.320717 -9.127681 -2.504602 0.051512 -1.741228 19.790761 -8.100239 16.900007 4.695900 -3.296400 2.926800 -85.034988 -5.606863 -18.293240 7.244955 -7.652755 -0.593798 -0.379628 0.572019 79.866065 -7.125000 0.000000 0.000000 90.333482 2.227966 11.220486 -9.613119 13.319466 -1.281589 -0.686338 -0.403364 28.194447 7.125000 0.000000 0.000000 
-25.412557 18.202694 -6.478057 -165.305877 -87.621310 -175.446872 3.189738 -25.517541 -17.039241 -0.419489 7.047229 17.191541 -10.604668 28.321027 5.783264 0.048600 -1.422100 -3.910900 10.415929 8.431278 -19.878868 0.328242 -7.229390 18.262704 7.476654 -27.019491 1.074219 -0.461200 4.356200 -12.081100 1.029497 0.320695 -9.120455 -2.454460 0.066756 -1.619779 20.267217 -8.105748 16.848219 4.876500 -3.299600 2.927700 -85.116415 -5.710958 -18.395268 7.212747 -7.612011 -0.626749 -0.473029 0.572268 79.755787 -7.125000 0.000000 0.000000 90.356371 2.275475 11.316235 -9.659009 13.371157 -1.289107 -0.683860 -0.404733 28.182537 7.125000 0.000000 0.000000 
-25.421321 18.205054 -6.491652 -159.228944 -87.634346 178.371286 3.363507 -25.206080 -16.946797 -0.421321 7.036863 17.170223 -10.513088 28.097133 5.933166 0.058500 -1.560300 -4.291900 10.716145 8.641551 -19.634677 0.353008 -7.201770 18.175164 7.500909 -27.120107 0.901968 -0.431300 4.214700 -11.681600 1.132336 0.240686 -9.067351 -2.411526 0.012746 -1.656349 19.704270 -7.995095 17.799451 4.643400 -3.168800 3.174600 -85.137079 -5.683723 -18.425982 7.198180 -7.592763 -0.576618 -0.306674 0.598331 79.809711 -7.125000 0.000000 0.000000 90.422898 2.282251 11.348245 -9.671102 13.391486 -1.290899 -0.681662 -0.404018 28.219649 7.125000 0.000000 0.000000 
-25.421658 18.216627 -6.484349 -164.347976 -87.575809 -176.396447 3.129851 -25.004219 -17.055099 -0.454483 7.015013 17.113355 -10.426064 27.921653 5.982262 0.054900 -1.512500 -4.160200 10.417972 8.656707 -19.707904 0.360156 -7.169787 18.104614 7.487189 -27.019781 0.898561 -0.400600 4.063600 -11.255500 1.052363 0.259756 -9.046964 -2.453668 0.027440 -1.577283 20.198368 -8.108920 18.057559 4.818400 -3.199100 3.280300 -85.127936 -5.763894 -18.452542 7.187175 -7.585283 -0.559937 -0.287420 0.578633 79.894759 -7.125000 0.000000 0.000000 90.486461 2.344718 11.357183 -9.684179 13.403153 -1.293380 -0.681453 -0.405255 28.278468 7.125000 0.000000 0.000000 
-25.424917 18.214941 -6.490079 -163.039176 -87.597906 -177.768008 3.174157 -24.862332 -17.073598 -0.464053 7.003955 17.080121 -10.338465 27.734654 6.108373 0.040400 -1.297200 -3.566900 10.434332 9.001325 -19.420254 0.373941 -7.136389 18.004120 7.594551 -27.350191 0.753011 -0.378000 3.948400 -10.931500 1.094972 0.258004 -8.992793 -2.432455 0.035414 -1.575901 20.666681 -8.348033 18.786793 4.981700 -3.256800 3.531500 -85.207694 -5.723347 -18.442197 7.240931 -7.657277 -0.571205 -0.293269 0.581658 79.800675 -7.125000 0.000000 0.000000 90.515683 2.325449 11.277204 -9.725221 13.451519 -1.302843 -0.682445 -0.406572 28.352601 7.125000 0.000000 0.000000 
-25.428400 18.210672 -6.492102 -164.355096 -87.592666 -176.437362 3.143341 -24.836350 -17.083028 -0.474862 6.981982 16.982783 -10.351562 27.818052 6.278702 0.050000 -1.443100 -3.969000 10.304005 9.384251 -19.226167 0.367520 -7.127948 17.974411 7.737106 -27.785550 0.685336 -0.385500 3.987200 -11.040600 1.119628 0.275559 -8.970494 -2.362822 0.057101 -1.568019 21.017939 -8.555484 19.465199 5.123800 -3.307600 3.760800 -85.325685 -5.630815 -18.414386 7.306890 -7.742804 -0.592172 -0.302434 0.597636 79.718060 -7.125000 0.000000 0.000000 90.476751 2.297375 11.169352 -9.762266 13.494674 -1.312216 -0.684048 -0.408476 28.416223 7.125000 0.000000 0.000000 
-25.429973 18.212132 -6.492551 -162.657090 -87.640369 -178.135077 3.167105 -24.610197 -17.117665 -0.483540 6.961490 16.910092 -10.291982 27.728421 6.514216 0.065900 -1.655800 -4.555300 10.372260 9.451458 -19.172495 0.371114 -7.122202 17.945184 7.772882 -27.916151 0.685447 -0.397800 4.049500 -11.216100 1.176935 0.260626 -8.938662 -2.356284 0.053521 -1.583830 21.273355 -8.650216 19.950330 5.233600 -3.312400 3.943500 -85.462250 -5.640720 -18.424420 7.330755 -7.772585 -0.611877 -0.319898 0.617662 79.725675 -7.125000 0.000000 0.000000 90.451579 2.277400 11.077888 -9.824605 13.570643 -1.322917 -0.680879 -0.408001 28.422532 7.125000 0.000000 0.000000 
